<?xml version="1.0" encoding="UTF-8" standalone="no"?>
<!-- Created with Inkscape (http://www.inkscape.org/) -->

<svg
   xmlns:dc="http://purl.org/dc/elements/1.1/"
   xmlns:cc="http://creativecommons.org/ns#"
   xmlns:rdf="http://www.w3.org/1999/02/22-rdf-syntax-ns#"
   xmlns:svg="http://www.w3.org/2000/svg"
   xmlns="http://www.w3.org/2000/svg"
   xmlns:sodipodi="http://sodipodi.sourceforge.net/DTD/sodipodi-0.dtd"
   xmlns:inkscape="http://www.inkscape.org/namespaces/inkscape"
   width="12"
   height="12"
   id="svg3810"
   version="1.1"
   inkscape:version="0.48.4 r9939"
   sodipodi:docname="trailHead-icon-12.svg">
  <defs
     id="defs3812" />
  <sodipodi:namedview
     id="base"
     pagecolor="#ffffff"
     bordercolor="#666666"
     borderopacity="1.0"
     inkscape:pageopacity="0.0"
     inkscape:pageshadow="2"
     inkscape:zoom="31.678384"
     inkscape:cx="16.762866"
     inkscape:cy="3.9864598"
     inkscape:document-units="px"
     inkscape:current-layer="layer2"
     showgrid="true"
     inkscape:window-width="1920"
     inkscape:window-height="1018"
     inkscape:window-x="-8"
     inkscape:window-y="-8"
     inkscape:window-maximized="1">
    <inkscape:grid
       type="xygrid"
       id="grid3822"
       empspacing="5"
       visible="true"
       enabled="true"
       snapvisiblegridlinesonly="true" />
  </sodipodi:namedview>
  <metadata
     id="metadata3815">
    <rdf:RDF>
      <cc:Work
         rdf:about="">
        <dc:format>image/svg+xml</dc:format>
        <dc:type
           rdf:resource="http://purl.org/dc/dcmitype/StillImage" />
        <dc:title />
      </cc:Work>
    </rdf:RDF>
  </metadata>
  <g
     inkscape:label="Layer 1"
     inkscape:groupmode="layer"
     id="layer1"
     transform="translate(0,-1040.3622)">
    <g
       inkscape:groupmode="layer"
       id="layer2"
       inkscape:label="Layer0 ">
      <rect
         style="font-size:16.77840232999999900px;font-style:normal;font-weight:normal;line-height:125%;letter-spacing:0px;word-spacing:0px;fill:#ffffff;fill-opacity:1;stroke:none;font-family:Sans"
         id="rect2985"
         width="12"
         height="12"
         x="0"
         y="1040.3622" />
    </g>
    <g
       style="font-size:16.77840233px;font-style:normal;font-weight:normal;line-height:125%;letter-spacing:0px;word-spacing:0px;fill:#003893;fill-opacity:1;stroke:none;font-family:Sans"
       id="text3818">
      <path
         d="m 11.903369,1051.4564 c -1.2e-5,0.2123 -0.07554,0.3968 -0.226576,0.5535 -0.151062,0.1567 -0.33275,0.235 -0.545063,0.235 l -10.21819439,0 c -0.22358971,0 -0.41090943,-0.075 -0.56195973,-0.2265 -0.15105076,-0.1511 -0.22657602,-0.3384 -0.22657602,-0.562 l 0,-10.168 c 0,-0.2236 0.0755253,-0.4109 0.22657602,-0.562 0.1510503,-0.151 0.33837002,-0.2265 0.56195973,-0.2266 l 10.21819439,0 c 0.223578,10e-5 0.408082,0.076 0.553511,0.2266 0.145407,0.1511 0.218116,0.3384 0.218128,0.562 z m -0.117257,-10.168 c -1.1e-5,-0.1901 -0.06154,-0.3496 -0.184589,-0.4783 -0.12307,-0.1286 -0.279668,-0.193 -0.469793,-0.193 l -10.21819439,0 c -0.19013671,0 -0.34955049,0.064 -0.47824181,0.193 -0.12869195,0.1287 -0.19303777,0.2882 -0.19303765,0.4783 l 0,10.168 c -1.2e-7,0.1901 0.0643457,0.3495 0.19303765,0.478 0.12869132,0.1285 0.2881051,0.1928 0.47824181,0.1928 l 10.21819439,0 c 0.17886,0 0.332642,-0.067 0.461345,-0.2013 0.12868,-0.1341 0.193026,-0.2906 0.193037,-0.4695 z m -0.251921,10.168 c -1.2e-5,0.2796 -0.134165,0.4193 -0.402461,0.4193 l -10.21819439,0 c -0.27957228,0 -0.41935802,-0.1397 -0.41935765,-0.4193 l 0,-10.168 c -3.7e-7,-0.2796 0.13978537,-0.4194 0.41935765,-0.4194 l 10.21819439,0 c 0.268296,0 0.402449,0.1398 0.402461,0.4194 z m -1.6103543,-7.6678 c -0.078522,-0.1679 -0.1961195,-0.2071 -0.352793,-0.1177 l -0.1172562,0.067 c -0.1566923,0.089 -0.1957777,0.2068 -0.1172563,0.3522 l 0.7716388,1.4266 c 0.07816,0.1676 0.195587,0.2067 0.352281,0.1172 l 0.117256,-0.067 c 0.156672,-0.09 0.195928,-0.2069 0.117768,-0.3523 z m -4.765521,-0.7721 c -0.078176,-0.1676 -0.2066967,-0.2067 -0.3855632,-0.1173 l -0.1341535,0.067 c -0.1679522,0.078 -0.2072083,0.2069 -0.1177683,0.3861 l 0.8223301,1.5602 c 0.078166,0.1679 0.2123189,0.207 0.4024605,0.1172 l 0.1341535,-0.067 c 0.1679419,-0.078 0.207198,-0.2066 0.1177683,-0.3855 z m 4.9498543,4.1106 c 0.06724,-0.1007 0.134314,-0.3019 0.20123,-0.6037 0.02252,-0.1566 -0.04456,-0.3804 -0.20123,-0.6712 -0.03346,-0.112 -0.10054,-0.2686 -0.2012305,-0.4698 -0.1007101,-0.2013 -0.2294018,-0.4473 -0.3860753,-0.7381 -0.3577517,-0.4701 -0.626229,-0.7051 -0.805433,-0.7051 -0.4024686,0 -0.6876725,0.235 -0.8556124,0.7051 -0.044726,0.1229 -0.089443,0.2598 -0.1341535,0.4109 -0.044725,0.151 -0.095076,0.3216 -0.1510507,0.5118 l -1.5099948,1.0737 0.1843331,0.3861 0.2181274,-0.1009 1.2918673,2.0973 -0.3522809,1.7117 0.8223302,0.2013 0.184333,-0.8393 0.4869464,0.7886 0.3015893,-0.1342 -0.6876646,-1.1408 0.1843331,-0.8387 0.5873055,-0.638 1.4429184,2.8024 0.570408,-0.3861 z m -4.748112,-0.4526 c 0.055636,-0.1007 0.128345,-0.3245 0.2181274,-0.6713 0.010918,-0.1567 -0.061791,-0.4028 -0.2181274,-0.7384 -0.089782,-0.2795 -0.3079094,-0.7158 -0.6543823,-1.3087 -0.3021056,-0.5144 -0.5929419,-0.7716 -0.8725097,-0.7717 -0.3693521,10e-5 -0.6658207,0.2125 -0.8894068,0.6375 -0.055985,0.1342 -0.1790447,0.5145 -0.3691781,1.1408 l -1.64414829,1.1747 0.20123019,0.4193 0.2350247,-0.1003 1.4091236,2.2985 -0.3691781,1.8623 0.8894069,0.2181 0.2012302,-0.9058 0.537126,0.8556 0.3353837,-0.151 -0.7547414,-1.2417 0.2012303,-0.9227 0.637485,-0.6882 1.5939687,3.0538 0.6042027,-0.4194 z m 3.3722704,-3.2719 c -8.6e-6,-0.1902 -0.067085,-0.3524 -0.2012302,-0.4867 -0.1341617,-0.1343 -0.2964771,-0.2015 -0.4869464,-0.2015 -0.1901439,0 -0.3522885,0.067 -0.4864344,0.2015 -0.1341608,0.1343 -0.2012375,0.2965 -0.2012302,0.4867 -7.3e-6,0.2014 0.064339,0.3692 0.1930376,0.5033 0.1286842,0.1342 0.2935597,0.2012 0.494627,0.2012 0.2013928,0 0.3664389,-0.067 0.495139,-0.2012 0.1286832,-0.1341 0.193029,-0.3019 0.1930376,-0.5033 z m -0.8387153,4.9329 -0.033794,0.2013 -1.07374,-1.7451 1.258073,-0.5535 0.2181274,-0.319 0.453152,0.6713 z m -4.0440619,-5.7384 c -3.7e-6,-0.2126 -0.072627,-0.3917 -0.2178714,-0.5371 -0.145251,-0.1454 -0.3242074,-0.2181 -0.53687,-0.2181 -0.2126684,0 -0.3917102,0.073 -0.5371259,0.2181 -0.1454206,0.1454 -0.2181297,0.3245 -0.2181275,0.5371 -2.2e-6,0.2127 0.072707,0.3918 0.2181275,0.5372 0.1454157,0.1454 0.3244575,0.2181 0.5371259,0.2181 0.2126626,0 0.391619,-0.073 0.53687,-0.2181 0.145244,-0.1454 0.2178677,-0.3245 0.2178714,-0.5372 z m -0.905792,5.4025 -0.05018,0.2182 -1.174611,-1.9125 1.3758412,-0.6042 0.2350247,-0.3523 0.5033315,0.7384 z"
         style="font-variant:normal;font-stretch:normal;text-align:center;text-anchor:middle;fill:#003893;font-family:'ESRI Transportation &amp; Civic';-inkscape-font-specification:'ESRI Transportation &amp; Civic'"
         id="path4333" />
    </g>
  </g>
</svg>
